<svg width="20" height="20" fill="currentColor" xmlns="http://www.w3.org/2000/svg"><path d="M8.59 1.875h2.818c.18 0 .338 0 .486.023.586.094 1.093.46 1.367.986.07.133.12.282.176.453l.093.28c.016.047.02.06.025.07a1.042 1.042 0 001.028.688h2.5a.625.625 0 010 1.25H2.916a.625.625 0 110-1.25h2.575a1.042 1.042 0 00.977-.758l.093-.28c.057-.17.107-.32.176-.453a1.875 1.875 0 011.368-.986c.148-.023.305-.023.485-.023zm-1.084 2.5c.043-.084.081-.172.114-.262l.032-.094.083-.25c.076-.228.094-.274.111-.308a.625.625 0 01.456-.328c.037-.006.087-.008.327-.008h2.741c.24 0 .29.002.327.008a.625.625 0 01.456.328c.017.034.035.08.11.308l.084.25.032.094c.033.09.07.178.114.262H7.506zM4.929 7.042a.625.625 0 00-1.248.083l.387 5.793c.07 1.069.128 1.933.263 2.61.14.704.38 1.293.872 1.754.493.461 1.096.66 1.809.753.685.09 1.55.09 2.621.09h.733c1.07 0 1.936 0 2.621-.09.713-.093 1.316-.292 1.809-.753.493-.461.731-1.05.872-1.754.135-.678.192-1.541.263-2.61l.386-5.793a.625.625 0 00-1.247-.083l-.383 5.75c-.075 1.122-.128 1.904-.245 2.492-.114.57-.273.872-.5 1.085-.228.213-.54.352-1.117.427-.594.078-1.378.079-2.503.079h-.645c-1.126 0-1.909-.001-2.503-.079-.577-.075-.889-.214-1.117-.427-.228-.213-.386-.515-.5-1.085-.117-.588-.17-1.37-.245-2.493l-.383-5.75z"/><path d="M7.854 8.545a.625.625 0 01.684.56l.417 4.166a.625.625 0 01-1.244.125l-.417-4.167a.625.625 0 01.56-.684zM12.145 8.545c.343.034.594.34.56.684l-.417 4.167a.625.625 0 01-1.244-.125l.417-4.166a.625.625 0 01.684-.56z"/></svg>